<svg width="20" height="20" viewBox="0 0 20 20" fill="currentColor" xmlns="http://www.w3.org/2000/svg">
<path d="M9.99999 1.66666C5.39999 1.66666 1.66666 5.39999 1.66666 9.99999C1.66666 14.6 5.39999 18.3333 9.99999 18.3333C14.6 18.3333 18.3333 14.6 18.3333 9.99999C18.3333 5.39999 14.6 1.66666 9.99999 1.66666ZM13.0083 6.94999C13.9 6.94999 14.6167 7.66666 14.6167 8.55832C14.6167 9.44999 13.9 10.1667 13.0083 10.1667C12.1167 10.1667 11.4 9.44999 11.4 8.55832C11.3917 7.66666 12.1167 6.94999 13.0083 6.94999ZM8.00832 5.63332C9.09166 5.63332 9.97499 6.51666 9.97499 7.59999C9.97499 8.68332 9.09166 9.56666 8.00832 9.56666C6.92499 9.56666 6.04166 8.68332 6.04166 7.59999C6.04166 6.50832 6.91666 5.63332 8.00832 5.63332ZM8.00832 13.2417V16.3667C6.00832 15.7417 4.42499 14.2 3.72499 12.2333C4.59999 11.3 6.78332 10.825 8.00832 10.825C8.44999 10.825 9.00832 10.8917 9.59166 11.0083C8.22499 11.7333 8.00832 12.6917 8.00832 13.2417ZM9.99999 16.6667C9.77499 16.6667 9.55832 16.6583 9.34166 16.6333V13.2417C9.34166 12.0583 11.7917 11.4667 13.0083 11.4667C13.9 11.4667 15.4417 11.7917 16.2083 12.425C15.2333 14.9 12.825 16.6667 9.99999 16.6667Z"/>
</svg>
